<svg width="301" height="81" viewBox="0 0 301 81" fill="none" xmlns="http://www.w3.org/2000/svg">
<path d="M33.7139 15.1933C35.424 16.7569 36.7758 18.6462 37.7693 20.8612C38.7791 23.0762 39.284 25.6007 39.284 28.4346C39.284 32.4575 38.2742 35.9917 36.2546 39.0374C34.2513 42.083 31.4093 44.2736 27.7284 45.6091C27.7773 47.5473 28.3636 49.2248 29.4874 50.6418C30.6112 52.0587 31.9386 52.7672 33.4696 52.7672C34.4142 52.7672 35.2367 52.7102 35.937 52.5962C36.6536 52.4822 37.297 52.3519 37.867 52.2053V54.3552C36.9387 54.7461 35.5624 55.1369 33.7383 55.5278C31.9142 55.935 30.0005 56.1386 27.9972 56.1386C25.261 56.1386 23.0052 55.3161 21.23 53.6711C19.471 52.0424 18.4856 49.7623 18.2739 46.8306C15.9612 46.6026 13.8113 46.0326 11.8243 45.1205C9.83728 44.2084 8.08644 42.9788 6.57176 41.4315C5.08965 39.9006 3.90885 38.0846 3.02936 35.9836C2.16616 33.8826 1.73455 31.5698 1.73455 29.0453C1.73455 26.2114 2.21502 23.6462 3.17594 21.3498C4.15316 19.0371 5.48868 17.0582 7.18252 15.4132C8.86007 13.8008 10.8471 12.563 13.1435 11.6998C15.4563 10.8203 17.9156 10.3806 20.5215 10.3806C23.1111 10.3806 25.5378 10.804 27.8017 11.6509C30.0819 12.4979 32.0526 13.6787 33.7139 15.1933ZM27.4353 39.9901C28.1682 38.508 28.6975 36.8305 29.0232 34.9575C29.349 33.0845 29.5118 30.9672 29.5118 28.6056C29.5118 26.6023 29.3653 24.656 29.0721 22.7668C28.7952 20.8612 28.3148 19.1673 27.6307 17.6852C26.9304 16.2031 26.002 15.0142 24.8457 14.1184C23.6893 13.2226 22.2479 12.7747 20.5215 12.7747C17.5736 12.7747 15.3341 14.1754 13.8031 16.9768C12.2722 19.7618 11.5067 23.7032 11.5067 28.801C11.5067 30.9672 11.6696 33.0112 11.9953 34.9331C12.3373 36.8549 12.8666 38.5325 13.5833 39.9657C14.3162 41.4152 15.2445 42.5472 16.3683 43.3615C17.4921 44.1596 18.8765 44.5586 20.5215 44.5586C22.1339 44.5586 23.5183 44.1514 24.6746 43.3371C25.831 42.5227 26.7512 41.4071 27.4353 39.9901ZM74.3415 45.487L62.6882 46.1954L62.3218 45.8534V42.653H62.1752C61.6214 43.1579 61.0758 43.6547 60.5384 44.1433C60.0172 44.6156 59.3901 45.0472 58.6572 45.4381C57.8266 45.8778 57.0367 46.2036 56.2875 46.4153C55.5546 46.627 54.4796 46.7329 53.0627 46.7329C50.6034 46.7329 48.7141 45.9919 47.3948 44.5097C46.0919 43.0276 45.4404 40.9348 45.4404 38.2312V27.2375C45.4404 26.6023 45.3183 26.0893 45.074 25.6984C44.8297 25.2912 44.5039 24.9329 44.0968 24.6235C43.771 24.3792 43.3476 24.2081 42.8264 24.1104C42.3052 23.9964 41.8329 23.9231 41.4094 23.8905V22.1071L53.2581 21.4719L53.5269 21.8384V38.0846C53.5269 39.7621 53.8445 40.9999 54.4796 41.798C55.1311 42.596 56.0188 42.9951 57.1426 42.9951C58.2989 42.9951 59.3331 42.6938 60.2452 42.0911C61.1736 41.4885 61.8495 40.8452 62.2729 40.1612V26.9932C62.2729 26.4394 62.1671 25.9427 61.9553 25.5029C61.7436 25.0632 61.4341 24.7049 61.027 24.428C60.7338 24.2326 60.3104 24.1023 59.7566 24.0371C59.2191 23.972 58.6654 23.9231 58.0953 23.8905V22.1071L69.944 21.4719L70.3105 21.8384V40.6986C70.3105 41.2687 70.4245 41.7573 70.6525 42.1644C70.8805 42.5553 71.2144 42.8892 71.6542 43.1661C71.9636 43.3615 72.3627 43.5 72.8513 43.5814C73.3562 43.6465 73.8529 43.6873 74.3415 43.7035V45.487ZM91.7603 46H76.3204V44.2166C76.7438 44.184 77.1591 44.1433 77.5663 44.0944C77.9735 44.0456 78.3237 43.9641 78.6168 43.8501C79.138 43.6547 79.5045 43.3778 79.7162 43.0195C79.9279 42.6449 80.0338 42.1563 80.0338 41.5537V27.3352C80.0338 26.7652 79.9035 26.2684 79.6429 25.845C79.3823 25.4052 79.0566 25.0551 78.6657 24.7945C78.3725 24.599 77.9246 24.4117 77.322 24.2326C76.7357 24.0534 76.1982 23.9394 75.7096 23.8905V22.1071L87.6805 21.4719L88.0469 21.8384V41.2361C88.0469 41.8061 88.1691 42.2947 88.4134 42.7019C88.6577 43.0928 89.0079 43.386 89.4639 43.5814C89.7896 43.728 90.1479 43.8583 90.5388 43.9723C90.9297 44.0863 91.3369 44.1677 91.7603 44.2166V46ZM88.1935 12.677C88.1935 13.9148 87.713 14.9735 86.7521 15.853C85.8075 16.7162 84.6837 17.1478 83.3807 17.1478C82.0615 17.1478 80.9214 16.7162 79.9605 15.853C79.0158 14.9735 78.5435 13.9148 78.5435 12.677C78.5435 11.4392 79.0158 10.3806 79.9605 9.50108C80.9214 8.62159 82.0615 8.18184 83.3807 8.18184C84.7 8.18184 85.8319 8.62159 86.7765 9.50108C87.7212 10.3806 88.1935 11.4392 88.1935 12.677ZM107.958 46.7818C105.694 46.7818 103.69 46.456 101.948 45.8046C100.221 45.1368 98.7963 44.2329 97.6725 43.0928C96.5487 41.9364 95.7099 40.5683 95.1562 38.9885C94.6024 37.4087 94.3255 35.6904 94.3255 33.8337C94.3255 32.1399 94.6594 30.5275 95.3272 28.9965C96.0112 27.4655 96.9314 26.1219 98.0878 24.9655C99.2767 23.7765 100.751 22.8319 102.51 22.1316C104.285 21.4149 106.239 21.0566 108.373 21.0566C111.37 21.0566 113.739 21.6267 115.482 22.7668C117.225 23.8905 118.096 25.4134 118.096 27.3352C118.096 28.5079 117.787 29.4525 117.168 30.1691C116.549 30.8858 115.482 31.2441 113.968 31.2441C112.746 31.2441 111.72 30.9509 110.889 30.3646C110.075 29.7783 109.668 29.0128 109.668 28.0681C109.668 27.2701 109.798 26.4802 110.059 25.6984C110.319 24.9166 110.474 24.3221 110.523 23.915C110.344 23.6218 110.116 23.4019 109.839 23.2554C109.562 23.0925 109.13 23.0111 108.544 23.0111C107.811 23.0111 107.143 23.1821 106.541 23.5241C105.938 23.8661 105.376 24.4687 104.855 25.3319C104.35 26.1463 103.943 27.2375 103.633 28.6056C103.34 29.9737 103.194 31.6187 103.194 33.5405C103.194 36.4396 103.87 38.7768 105.221 40.552C106.59 42.3273 108.218 43.2149 110.108 43.2149C111.915 43.2149 113.349 42.8159 114.407 42.0179C115.482 41.2035 116.435 40.0553 117.266 38.5732L119.098 39.8436C118.593 40.8371 117.99 41.7491 117.29 42.5798C116.59 43.3941 115.751 44.1189 114.774 44.7541C113.748 45.4218 112.705 45.9267 111.647 46.2687C110.588 46.6108 109.358 46.7818 107.958 46.7818ZM151.932 46H140.426C139.009 43.5081 137.714 41.399 136.541 39.6725C135.368 37.9298 134.261 36.3174 133.219 34.8353L131.753 36.0813V41.4071C131.753 41.9934 131.834 42.4739 131.997 42.8485C132.176 43.2231 132.51 43.5 132.999 43.6791C133.292 43.8094 133.634 43.9234 134.025 44.0211C134.416 44.1189 134.807 44.184 135.197 44.2166V46H120.075V44.2166C120.482 44.184 120.889 44.1433 121.297 44.0944C121.704 44.0293 122.062 43.9479 122.372 43.8501C122.893 43.671 123.243 43.3941 123.422 43.0195C123.617 42.6449 123.715 42.1563 123.715 41.5537V14.3139C123.715 13.7764 123.593 13.2226 123.349 12.6526C123.121 12.0663 122.779 11.6265 122.323 11.3334C122.013 11.1379 121.549 10.975 120.93 10.8447C120.311 10.7145 119.749 10.633 119.244 10.6004V8.81703L131.386 8.18184L131.753 8.57273V33.7848C132.958 32.7099 134.31 31.464 135.808 30.047C137.323 28.63 138.536 27.4574 139.448 26.529C139.986 25.9753 140.279 25.56 140.328 25.2831C140.393 24.9899 140.426 24.8108 140.426 24.7456C140.426 24.4524 140.165 24.2081 139.644 24.0127C139.139 23.8173 138.373 23.6462 137.347 23.4997V21.7651H149.758V23.4508C148.129 23.9068 146.883 24.3384 146.02 24.7456C145.173 25.1365 144.245 25.6658 143.235 26.3336C142.567 26.7733 141.916 27.2375 141.281 27.7261C140.662 28.1984 139.945 28.7929 139.131 29.5095C140.727 31.8223 142.201 33.964 143.553 35.9347C144.904 37.9054 146.321 39.9901 147.804 42.1889C148.308 42.9544 148.935 43.4674 149.685 43.728C150.434 43.9886 151.183 44.1514 151.932 44.2166V46Z" fill="#9B5EFF"/>
<path d="M168.9 47.8903C166.36 47.8903 163.982 47.4831 161.767 46.6688C159.552 45.8381 157.622 44.641 155.977 43.0775C154.364 41.5465 153.094 39.6572 152.166 37.4097C151.237 35.1458 150.773 32.662 150.773 29.9584C150.773 27.2711 151.237 24.7873 152.166 22.5071C153.11 20.2107 154.43 18.2237 156.123 16.5461C157.785 14.9012 159.78 13.6308 162.109 12.735C164.438 11.8229 166.93 11.3669 169.584 11.3669C171.506 11.3669 173.257 11.6031 174.837 12.0754C176.417 12.5314 177.752 13.0526 178.844 13.6389L180.358 12.2953H182.484L182.704 24.9502H180.554C179.332 21.0902 177.866 18.2563 176.156 16.4484C174.446 14.6406 172.361 13.7367 169.902 13.7367C166.84 13.7367 164.511 15.0885 162.915 17.7921C161.319 20.4794 160.521 24.258 160.521 29.1278C160.521 31.8803 160.79 34.2337 161.327 36.1881C161.881 38.1263 162.597 39.6898 163.477 40.8788C164.422 42.1166 165.537 43.0286 166.824 43.615C168.111 44.185 169.536 44.47 171.099 44.47C173.379 44.47 175.407 43.8511 177.182 42.6133C178.974 41.3755 180.603 39.5025 182.068 36.9943L184.169 38.2647C183.469 39.698 182.671 40.9846 181.775 42.1247C180.879 43.2485 179.845 44.2176 178.673 45.0319C177.386 45.9277 175.961 46.628 174.397 47.1329C172.85 47.6378 171.018 47.8903 168.9 47.8903ZM211.214 25.6098C212.419 26.7336 213.339 28.0773 213.974 29.6408C214.61 31.2043 214.927 32.8982 214.927 34.7223C214.927 36.5302 214.61 38.2403 213.974 39.8527C213.356 41.4488 212.443 42.8169 211.238 43.957C209.952 45.1785 208.412 46.115 206.621 46.7665C204.846 47.4179 202.81 47.7437 200.513 47.7437C198.526 47.7437 196.694 47.4587 195.016 46.8886C193.355 46.3186 191.881 45.4635 190.595 44.3234C189.357 43.2322 188.38 41.8885 187.663 40.2924C186.946 38.68 186.588 36.8803 186.588 34.8933C186.588 32.9389 186.897 31.2043 187.516 29.6897C188.152 28.1587 189.096 26.7987 190.35 25.6098C191.555 24.4697 193.038 23.5902 194.797 22.9713C196.572 22.3361 198.551 22.0185 200.733 22.0185C203.013 22.0185 205.017 22.3361 206.743 22.9713C208.486 23.5902 209.976 24.4697 211.214 25.6098ZM204.96 42.54C205.318 41.628 205.579 40.5204 205.741 39.2175C205.921 37.9145 206.01 36.3999 206.01 34.6735C206.01 33.5334 205.929 32.2304 205.766 30.7646C205.603 29.2988 205.359 28.1424 205.033 27.2955C204.642 26.2694 204.096 25.4632 203.396 24.8769C202.712 24.2906 201.841 23.9974 200.782 23.9974C199.626 23.9974 198.697 24.315 197.997 24.9502C197.313 25.5854 196.784 26.4079 196.409 27.4176C196.067 28.346 195.831 29.4372 195.701 30.6913C195.57 31.9291 195.505 33.2239 195.505 34.5757C195.505 36.351 195.562 37.825 195.676 38.9976C195.79 40.154 196.067 41.3185 196.507 42.4912C196.881 43.5009 197.419 44.299 198.119 44.8853C198.819 45.4717 199.707 45.7648 200.782 45.7648C201.759 45.7648 202.598 45.4961 203.298 44.9586C203.999 44.4049 204.552 43.5987 204.96 42.54ZM245.929 24.5104C245.196 24.6244 244.48 24.9013 243.779 25.3411C243.095 25.7808 242.525 26.4649 242.069 27.3932C240.929 29.7711 239.805 32.1734 238.698 34.6002C237.607 37.0106 236.532 39.3478 235.473 41.6117C235.147 42.2957 234.773 43.1752 234.349 44.2501C233.942 45.3251 233.6 46.3023 233.323 47.1818H228.828C226.955 42.8332 225.351 39.2256 224.015 36.3591C222.696 33.4927 221.295 30.4144 219.813 27.1245C219.471 26.359 218.934 25.7564 218.201 25.3166C217.484 24.8769 216.751 24.6082 216.002 24.5104V22.727H231.051V24.5104C230.497 24.5267 229.846 24.6489 229.097 24.8769C228.348 25.1049 227.973 25.3981 227.973 25.7564C227.973 25.8541 228.006 26.0007 228.071 26.1961C228.136 26.3916 228.217 26.6114 228.315 26.8557C228.836 28.0936 229.618 29.877 230.66 32.206C231.719 34.535 232.835 36.9862 234.007 39.5595C234.822 37.7843 235.595 36.0497 236.328 34.3559C237.077 32.6457 237.998 30.4714 239.089 27.833C239.235 27.4421 239.317 27.1245 239.333 26.8802C239.366 26.6359 239.382 26.473 239.382 26.3916C239.382 26.0984 239.235 25.846 238.942 25.6342C238.665 25.4062 238.331 25.2108 237.941 25.0479C237.533 24.885 237.143 24.7629 236.768 24.6814C236.393 24.6 236.084 24.543 235.84 24.5104V22.727H245.929V24.5104ZM272.729 41.1231C272.159 42.0514 271.467 42.9309 270.653 43.7615C269.855 44.5759 268.943 45.2762 267.917 45.8625C266.825 46.4815 265.718 46.9456 264.594 47.2551C263.487 47.5808 262.208 47.7437 260.758 47.7437C258.348 47.7437 256.263 47.4017 254.504 46.7176C252.762 46.0336 251.32 45.1134 250.18 43.957C249.04 42.8006 248.185 41.4407 247.615 39.8771C247.061 38.2973 246.784 36.5872 246.784 34.7467C246.784 33.0855 247.086 31.4975 247.688 29.9828C248.307 28.4519 249.179 27.0919 250.302 25.903C251.41 24.7466 252.802 23.8101 254.48 23.0935C256.174 22.3769 258.063 22.0185 260.148 22.0185C262.428 22.0185 264.301 22.2954 265.767 22.8492C267.233 23.4029 268.446 24.1684 269.407 25.1456C270.335 26.074 271.011 27.1733 271.435 28.4437C271.858 29.6978 272.07 31.017 272.07 32.4014V33.9894H255.555C255.555 37.3282 256.198 39.869 257.485 41.6117C258.771 43.3544 260.815 44.2257 263.617 44.2257C265.148 44.2257 266.524 43.8104 267.746 42.9798C268.967 42.1329 270.009 41.0661 270.873 39.7794L272.729 41.1231ZM263.397 31.8395C263.397 30.8623 263.348 29.8607 263.25 28.8346C263.153 27.8085 262.982 26.9698 262.737 26.3183C262.46 25.5528 262.078 24.9746 261.589 24.5837C261.117 24.1928 260.514 23.9974 259.781 23.9974C258.527 23.9974 257.526 24.6326 256.776 25.903C256.027 27.1733 255.62 29.1848 255.555 31.9373L263.397 31.8395ZM299.432 27.1978C299.432 28.4356 299.049 29.5268 298.283 30.4714C297.518 31.3998 296.508 31.864 295.254 31.864C294.065 31.864 293.055 31.5627 292.225 30.96C291.41 30.3574 291.003 29.4698 291.003 28.2971C291.003 27.7271 291.044 27.2874 291.125 26.9779C291.207 26.6522 291.28 26.3509 291.345 26.074C290.596 26.1066 289.806 26.3671 288.976 26.8557C288.145 27.3444 287.412 27.9958 286.777 28.8102V42.2224C286.777 42.7925 286.866 43.2648 287.046 43.6394C287.225 44.014 287.526 44.3072 287.949 44.5189C288.308 44.698 288.886 44.8528 289.684 44.9831C290.498 45.0971 291.085 45.1622 291.443 45.1785V46.9619H275.099V45.1785C275.506 45.1459 275.913 45.1052 276.321 45.0563C276.744 44.9912 277.102 44.9098 277.396 44.812C277.917 44.6329 278.275 44.356 278.47 43.9814C278.666 43.6068 278.764 43.1182 278.764 42.5156V28.2971C278.764 27.7108 278.625 27.1896 278.348 26.7336C278.071 26.2613 277.738 25.8867 277.347 25.6098C277.054 25.4144 276.679 25.2515 276.223 25.1212C275.783 24.9909 275.295 24.9013 274.757 24.8525V23.069L286.41 22.4339L286.777 22.8003V26.3427H286.875C287.998 25.0398 289.187 24.0218 290.441 23.2889C291.712 22.5397 293.031 22.1651 294.399 22.1651C295.914 22.1651 297.127 22.6374 298.039 23.5821C298.968 24.5104 299.432 25.7157 299.432 27.1978Z" fill="white"/>
<path opacity="0.35" d="M50.4668 69.7143C83.7112 60.9143 117.445 60.9143 151.667 69.7143C185.889 78.5143 219.622 78.5143 252.867 69.7143" stroke="#9B5EFF" stroke-width="1.1" stroke-linecap="round"/>
<path d="M145.8 58.3472C150.862 58.3472 154.967 62.4516 154.967 67.5142C154.967 72.5768 150.862 76.6812 145.8 76.6812C140.737 76.6811 136.633 72.5767 136.633 67.5142C136.633 62.4517 140.737 58.3472 145.8 58.3472Z" fill="#9B5EFF" stroke="#9B5EFF" stroke-width="0.733333"/>
<path d="M144.719 65.9319L144.558 66.4143H148.12L144.796 72.5833L146.154 67.6106L146.28 67.1477H142.801L145.976 62.1565L144.719 65.9319Z" fill="#3A1A60" stroke="#3A1A60" stroke-width="0.733333"/>
<path d="M252.867 79.981C258.132 79.981 262.4 75.7128 262.4 70.4476C262.4 65.1825 258.132 60.9143 252.867 60.9143C247.602 60.9143 243.333 65.1825 243.333 70.4476C243.333 75.7128 247.602 79.981 252.867 79.981Z" fill="#EDE0FF" stroke="#9B5EFF" stroke-width="1.1"/>
<path d="M248.104 69.8637L250.61 74.5769L258.967 66.6066" stroke="#9B5EFF" stroke-width="1.38401" stroke-linecap="round" stroke-linejoin="round"/>
<path d="M47.5333 79.2476C52.7984 79.2476 57.0667 74.9794 57.0667 69.7142C57.0667 64.4491 52.7984 60.1809 47.5333 60.1809C42.2682 60.1809 38 64.4491 38 69.7142C38 74.9794 42.2682 79.2476 47.5333 79.2476Z" fill="#EDE0FF" stroke="#9B5EFF" stroke-width="1.1"/>
<path d="M47.5337 65C48.9222 65.0001 50.0474 66.1261 50.0474 67.5146C50.0472 68.903 48.9221 70.0282 47.5337 70.0283C46.1452 70.0283 45.0192 68.9031 45.019 67.5146C45.019 66.126 46.1451 65 47.5337 65Z" fill="#9B5EFF" stroke="#9B5EFF" stroke-width="0.838095"/>
<path d="M43.1333 73.7476C46.0666 71.3032 49 71.3032 51.9333 73.7476" stroke="#9B5EFF" stroke-width="1.17333" stroke-linecap="round"/>
</svg>
